<?xml version="1.0" encoding="utf-8"?>
<svg version="1.1" xmlns="http://www.w3.org/2000/svg" xmlns:xlink="http://www.w3.org/1999/xlink" height="15" width="82.35849056603729">
  <defs>
    <rect id="rect-0" opacity="1" x="0" y="0" width="82.35849056603729" height="15"/>
    <path id="path-1" opacity="1" d="M41.17924528301886,0 C37.07547169811333,0 33.6792452830191,3.3962264150943393 33.6792452830191,7.5 C33.6792452830191,11.60377358490566 37.07547169811333,15 41.17924528301886,15 C45.28301886792438,15 48.679245283018616,11.60377358490566 48.679245283018616,7.5 C48.679245283018616,3.396226415094339 45.28301886792438,0 41.17924528301886,0Z"/>
    <path id="path-2" opacity="1" d="M74.85849056603763,0 C70.75471698113202,0 67.35849056603774,3.3962264150943393 67.35849056603774,7.5 C67.35849056603774,11.60377358490566 70.75471698113203,15 74.85849056603763,15 C78.96226415094321,15 82.3584905660375,11.60377358490566 82.3584905660375,7.5 C82.3584905660375,3.396226415094339 78.96226415094321,0 74.85849056603763,0Z"/>
    <path id="path-3" opacity="1" d="M7.64150943396228,0 C3.537735849056615,0 0,3.3962264150943393 0,7.5 C0,11.60377358490566 3.3962264150943433,15 7.641509433962275,15 C11.74528301886794,15 15.28301886792455,11.60377358490566 15.28301886792455,7.5 C15.141509433962284,3.3962264150943393 11.74528301886794,0 7.64150943396228,0Z"/>
  </defs>
  <g opacity="1">
    <g>
      <use xlink:href="#path-1" fill="rgb(250,153,23)" fill-opacity="1"/>
    </g>
    <g>
      <use xlink:href="#path-2" fill="rgb(250,153,23)" fill-opacity="1"/>
    </g>
    <g>
      <use xlink:href="#path-3" fill="rgb(250,153,23)" fill-opacity="1"/>
    </g>
  </g>
</svg>