<?xml version="1.0" encoding="utf-8"?>
<svg version="1.1" xmlns="http://www.w3.org/2000/svg" xmlns:xlink="http://www.w3.org/1999/xlink" height="82.35849056603729" width="15">
  <defs>
    <rect id="rect-0" opacity="1" x="-33.679245283019554" y="33.679245283018645" width="82.35849056603729" height="15"/>
    <path id="path-1" opacity="1" d="M7.499999999999304,33.679245283018645 C3.3962264150937753,33.679245283018645 -4.547473508864641e-13,37.075471698112985 -4.547473508864641e-13,41.179245283018645 C-4.547473508864641e-13,45.283018867924305 3.3962264150937753,48.679245283018645 7.499999999999304,48.679245283018645 C11.603773584904832,48.679245283018645 14.999999999999062,45.283018867924305 14.999999999999062,41.179245283018645 C14.999999999999062,37.075471698112985 11.603773584904832,33.679245283018645 7.499999999999304,33.679245283018645Z"/>
    <path id="path-2" opacity="1" d="M41.17924528301807,33.679245283018645 C37.075471698112466,33.679245283018645 33.67924528301819,37.075471698112985 33.67924528301819,41.179245283018645 C33.67924528301819,45.283018867924305 37.07547169811249,48.679245283018645 41.17924528301807,48.679245283018645 C45.28301886792366,48.679245283018645 48.67924528301795,45.283018867924305 48.67924528301795,41.179245283018645 C48.67924528301795,37.075471698112985 45.28301886792366,33.679245283018645 41.17924528301807,33.679245283018645Z"/>
    <path id="path-3" opacity="1" d="M-26.037735849057274,33.679245283018645 C-30.141509433962938,33.679245283018645 -33.679245283019554,37.075471698112985 -33.679245283019554,41.179245283018645 C-33.679245283019554,45.283018867924305 -30.28301886792521,48.679245283018645 -26.037735849057277,48.679245283018645 C-21.933962264151614,48.679245283018645 -18.396226415095004,45.283018867924305 -18.396226415095004,41.179245283018645 C-18.53773584905727,37.075471698112985 -21.933962264151614,33.679245283018645 -26.037735849057274,33.679245283018645Z"/>
  </defs>
  <g transform="translate(7.4999999999990905, 41.179245283018645) rotate(90.00003218077504) translate(-7.4999999999990905, -41.179245283018645)" opacity="1">
    <g>
      <use xlink:href="#path-1" fill="rgb(255,255,255)" fill-opacity="1"/>
    </g>
    <g>
      <use xlink:href="#path-2" fill="rgb(255,255,255)" fill-opacity="1"/>
    </g>
    <g>
      <use xlink:href="#path-3" fill="rgb(255,255,255)" fill-opacity="1"/>
    </g>
  </g>
</svg>